HIERARCHY
ROOT Hips
{
	OFFSET 0.00000 0.00000 0.00000
	CHANNELS 6 Xposition Yposition Zposition Zrotation Yrotation Xrotation 
	JOINT LHipJoint
	{
		OFFSET 0 0 0
		CHANNELS 3 Zrotation Yrotation Xrotation
		JOINT LeftUpLeg
		{
			OFFSET 3.13874 -1.57224 1.49786
			CHANNELS 3 Zrotation Yrotation Xrotation
			JOINT LeftLeg
			{
				OFFSET 2.10955 -5.79594 0.00000
				CHANNELS 3 Zrotation Yrotation Xrotation
				JOINT LeftFoot
				{
					OFFSET 2.41843 -6.64458 0.00000
					CHANNELS 3 Zrotation Yrotation Xrotation
					JOINT LeftToeBase
					{
						OFFSET 0.04713 -0.12948 1.66229
						CHANNELS 3 Zrotation Yrotation Xrotation
						End Site
						{
							OFFSET 0.00000 -0.00000 0.85167
						}
					}
				}
			}
		}
	}
	JOINT RHipJoint
	{
		OFFSET 0 0 0
		CHANNELS 3 Zrotation Yrotation Xrotation
		JOINT RightUpLeg
		{
			OFFSET -3.13988 -1.57224 1.49786
			CHANNELS 3 Zrotation Yrotation Xrotation
			JOINT RightLeg
			{
				OFFSET -2.15006 -5.90725 0.00000
				CHANNELS 3 Zrotation Yrotation Xrotation
				JOINT RightFoot
				{
					OFFSET -2.34496 -6.44273 0.00000
					CHANNELS 3 Zrotation Yrotation Xrotation
					JOINT RightToeBase
					{
						OFFSET -0.08699 -0.23900 1.55223
						CHANNELS 3 Zrotation Yrotation Xrotation
						End Site
						{
							OFFSET -0.00000 -0.00000 0.80281
						}
					}
				}
			}
		}
	}
	JOINT LowerBack
	{
		OFFSET 0 0 0
		CHANNELS 3 Zrotation Yrotation Xrotation
		JOINT Spine
		{
			OFFSET 0.01292 1.96517 -0.16495
			CHANNELS 3 Zrotation Yrotation Xrotation
			JOINT Spine1
			{
				OFFSET 0.02122 1.88666 0.19706
				CHANNELS 3 Zrotation Yrotation Xrotation
				JOINT Neck
				{
					OFFSET 0 0 0
					CHANNELS 3 Zrotation Yrotation Xrotation
					JOINT Neck1
					{
						OFFSET -0.01683 1.81591 0.07903
						CHANNELS 3 Zrotation Yrotation Xrotation
						JOINT Head
						{
							OFFSET 0.00815 1.74013 -0.47700
							CHANNELS 3 Zrotation Yrotation Xrotation
							End Site
							{
								OFFSET -0.00204 1.83225 -0.16933
							}
						}
					}
				}
				JOINT LeftShoulder
				{
					OFFSET 0 0 0
					CHANNELS 3 Zrotation Yrotation Xrotation
					JOINT LeftArm
					{
						OFFSET 3.38482 1.41533 0.19802
						CHANNELS 3 Zrotation Yrotation Xrotation
						JOINT LeftForeArm
						{
							OFFSET 4.32712 -0.00000 0.00000
							CHANNELS 3 Zrotation Yrotation Xrotation
							JOINT LeftHand
							{
								OFFSET 3.28587 -0.00000 -0.00000
								CHANNELS 3 Zrotation Yrotation Xrotation
								JOINT LeftFingerBase
								{
									OFFSET 0 0 0
									CHANNELS 3 Zrotation Yrotation Xrotation
									JOINT LeftHandIndex1
									{
										OFFSET 0.43316 -0.00000 -0.00000
										CHANNELS 3 Zrotation Yrotation Xrotation
										End Site
										{
											OFFSET 0.34922 -0.00000 -0.00000
										}
									}
								}
								JOINT LThumb
								{
									OFFSET 0 0 0
									CHANNELS 3 Zrotation Yrotation Xrotation
									End Site
									{
										OFFSET 0.35456 -0.00000 0.35456
									}
								}
							}
						}
					}
				}
				JOINT RightShoulder
				{
					OFFSET 0 0 0
					CHANNELS 3 Zrotation Yrotation Xrotation
					JOINT RightArm
					{
						OFFSET -3.09725 1.62858 -0.14144
						CHANNELS 3 Zrotation Yrotation Xrotation
						JOINT RightForeArm
						{
							OFFSET -4.29104 -0.00000 0.00000
							CHANNELS 3 Zrotation Yrotation Xrotation
							JOINT RightHand
							{
								OFFSET -3.22720 -0.00000 -0.00000
								CHANNELS 3 Zrotation Yrotation Xrotation
								JOINT RightFingerBase
								{
									OFFSET 0 0 0
									CHANNELS 3 Zrotation Yrotation Xrotation
									JOINT RightHandIndex1
									{
										OFFSET -0.54362 -0.00000 -0.00000
										CHANNELS 3 Zrotation Yrotation Xrotation
										End Site
										{
											OFFSET -0.43828 -0.00000 -0.00000
										}
									}
								}
								JOINT RThumb
								{
									OFFSET 0 0 0
									CHANNELS 3 Zrotation Yrotation Xrotation
									End Site
									{
										OFFSET -0.44497 -0.00000 0.44497
									}
								}
							}
						}
					}
				}
			}
		}
	}
}
MOTION
Frames: 12
Frame Time: .0083333
-24.8753 15.7314 8.1193 0 0 0 0 0 0 -21 0 0 0 0 0 0 0 0 0 0 0 0 0 0 21 0 0 0 0 0 0 0 0 0 0 0 0 0 0 0 0 0 0 0 0 0 0 -16 0 0 21 0 0 11 0 0 0 -8 0 0 0 0 0 0 0 0 0 0 0 0 0 0 0 0 0 0 0 0 8 0 0 0 0 0 0 0 0 0 0 0 0 0 0 0 0 0
-24.8753 15.7314 8.1193 -175.3060 -9.4204 -175.3890 0.0000 0.0000 0.0000 -7.0325 -34.2094 -14.2706 1.4375 7.5802 21.4462 0.1758 -0.9932 -7.6299 13.3684 -18.9112 -70.2660 0.0000 0.0000 0.0000 39.6521 15.2982 8.0898 -0.0041 0.4139 -1.1372 -3.0264 -14.2131 -40.1253 -0.8288 -5.8083 16.2291 3.7470 3.2504 7.8835 2.0595 4.6602 -9.0497 -0.6731 1.6992 -14.2828 7.3990 9.6137 -11.4380 0.3293 9.7308 35.4872 0.1564 4.2701 14.5291 0.0000 0.0000 0.0000 -76.4640 12.4349 6.3815 142.8357 -46.2972 -103.6413 -0.0000 0.0000 -65.1819 27.1215 32.3812 15.3394 -7.1250 0.0000 -0.0000 -6.4285 65.3420 -3.1663 0.0000 0.0000 0.0000 67.4983 -25.0488 29.9527 -121.2593 55.9649 -86.7046 0.0000 -0.0000 -14.8767 -18.4974 -15.3794 5.0703 7.1250 -0.0000 -0.0000 8.6000 -45.9744 -0.2084
-24.8889 15.7385 8.1366 -175.4090 -9.5312 -175.3240 0.0000 0.0000 0.0000 -7.1945 -34.3990 -14.1523 1.3905 7.4605 21.0869 0.1684 -0.6262 -7.5535 13.4273 -18.9310 -70.4475 0.0000 0.0000 0.0000 39.8252 16.4438 8.8725 -0.0077 0.5649 -1.5523 -3.1759 -14.9117 -41.2831 -0.9573 -6.2302 17.4538 3.8230 3.3543 7.8814 1.8999 4.7979 -9.1057 -0.9187 1.7441 -14.3220 6.7751 9.1632 -11.6889 0.5946 9.0429 35.8689 0.2598 3.8952 14.6685 -0.0000 0.0000 0.0000 -75.3308 12.0696 5.8662 144.7302 -45.0038 -104.9962 -0.0000 0.0000 -65.1527 27.5077 32.5046 15.6331 -7.1250 0.0000 -0.0000 -6.0210 65.5790 -2.9979 -0.0000 0.0000 0.0000 66.8836 -24.9198 28.7865 -124.2385 55.0704 -89.1607 0.0000 -0.0000 -15.4030 -18.7792 -15.2814 5.1210 7.1250 -0.0000 -0.0000 8.3157 -45.9093 -0.1879
-24.9021 15.7494 8.1540 -175.4810 -9.6113 -175.1920 0.0000 0.0000 0.0000 -7.2774 -34.8174 -13.9312 1.3282 7.2983 20.6023 0.1682 -0.0281 -7.7349 13.4275 -18.9311 -70.4480 0.0000 0.0000 0.0000 40.1507 18.0655 9.7078 -0.0096 0.6327 -1.7386 -3.4968 -15.4474 -43.0526 -1.0994 -6.6626 18.7196 3.7403 3.4020 7.7463 1.9072 4.8389 -9.1321 -0.8650 1.7718 -14.2736 6.0608 8.7456 -12.1090 0.6317 8.5046 36.3429 0.3193 3.5352 14.9113 0.0000 0.0000 0.0000 -74.3489 11.7565 4.9347 146.5124 -43.7015 -106.2422 -0.0000 0.0000 -65.4014 27.7994 32.9451 15.9989 -7.1250 0.0000 -0.0000 -5.9520 66.1151 -3.0370 0.0000 0.0000 0.0000 66.2292 -24.4239 27.6902 -126.6768 54.2509 -91.1498 0.0000 -0.0000 -15.6055 -18.9367 -15.4379 5.2183 7.1250 -0.0000 -0.0000 8.2083 -46.0912 -0.2226
-24.9094 15.7613 8.1691 -175.3750 -9.7225 -175.0650 0.0000 0.0000 0.0000 -6.9764 -34.7659 -14.0687 1.2710 7.1456 20.1474 0.1666 0.4454 -7.8839 13.4935 -18.9532 -70.6515 0.0000 0.0000 0.0000 40.3565 18.6955 10.2065 -0.0186 0.8798 -2.4180 -3.5722 -15.9558 -43.7089 -1.1089 -6.6903 18.8010 3.6498 3.3913 7.6733 2.0439 4.8079 -9.2205 -0.6532 1.7652 -14.3557 5.5462 8.4601 -12.2641 0.6311 8.1348 36.7356 0.3458 3.2693 15.0854 -0.0000 -0.0000 0.0000 -73.4066 11.8472 3.6522 148.2849 -42.3189 -107.4514 -0.0000 0.0000 -65.9382 27.8127 33.0788 16.0621 -7.1250 0.0000 -0.0000 -6.0300 66.2560 -3.0965 -0.0000 -0.0000 0.0000 65.4772 -24.1780 26.7515 -129.3802 53.2424 -93.3301 0.0000 -0.0000 -14.8645 -18.5757 -15.2322 5.0458 7.1250 -0.0000 -0.0000 8.4914 -45.8326 -0.1758
-24.9195 15.7721 8.1840 -175.3250 -9.8402 -174.9340 0.0000 0.0000 0.0000 -6.7959 -34.8423 -14.1146 1.2164 6.9959 19.7033 0.1626 0.8934 -7.9978 13.5477 -18.9711 -70.8183 0.0000 0.0000 0.0000 40.6413 19.7112 10.8747 -0.0268 1.0575 -2.9070 -3.7674 -16.4529 -44.8459 -1.1910 -6.9252 19.4939 3.6079 3.3890 7.5706 2.1082 4.7886 -9.2937 -0.5490 1.7576 -14.3889 5.0107 8.1638 -12.4031 0.6961 7.7338 37.0945 0.3967 2.9975 15.2385 0.0000 -0.0000 0.0000 -72.3341 11.7955 2.3403 149.8568 -41.0159 -108.4965 -0.0000 0.0000 -66.2913 27.8240 33.1455 16.0966 -7.1250 0.0000 -0.0000 -6.0633 66.3276 -3.1236 0.0000 -0.0000 0.0000 64.7099 -23.9010 25.7070 -131.9317 52.1861 -95.3603 0.0000 -0.0000 -14.6549 -18.4660 -15.0922 4.9693 7.1250 -0.0000 -0.0000 8.5584 -45.6744 -0.1435
-24.9299 15.7829 8.1981 -175.2590 -9.9697 -174.7870 0.0000 0.0000 0.0000 -6.5760 -34.8719 -14.2026 1.1622 6.8439 19.2537 0.1580 1.3130 -8.1095 13.6070 -18.9905 -71.0005 0.0000 0.0000 0.0000 40.9100 20.6215 11.4671 -0.0362 1.2283 -3.3771 -3.9454 -16.9407 -45.8806 -1.2447 -7.0741 19.9350 3.5766 3.3606 7.4386 2.1838 4.7328 -9.3697 -0.4294 1.7322 -14.4079 4.5292 7.9183 -12.4623 0.7611 7.3983 37.4081 0.4464 2.7623 15.3611 -0.0000 -0.0000 0.0000 -71.2221 11.8103 0.8607 151.2852 -39.7660 -109.4222 -0.0000 0.0000 -66.5828 27.7407 33.1010 16.0247 -7.1250 0.0000 -0.0000 -6.1395 66.2576 -3.1531 -0.0000 -0.0000 0.0000 63.9154 -23.6330 24.6755 -134.3911 51.0633 -97.2886 0.0000 -0.0000 -14.4170 -18.3447 -14.8074 4.8439 7.1250 -0.0000 -0.0000 8.6010 -45.3657 -0.0782
-24.9408 15.7933 8.2117 -175.1860 -10.1077 -174.6290 0.0000 0.0000 0.0000 -6.3338 -34.8683 -14.3187 1.1098 6.6930 18.8091 0.1532 1.7048 -8.2257 13.6755 -19.0127 -71.2110 0.0000 0.0000 0.0000 41.1407 21.4000 11.9423 -0.0456 1.3779 -3.7892 -4.0922 -17.4228 -46.7687 -1.2572 -7.1080 20.0357 3.5832 3.3196 7.2859 2.2472 4.6619 -9.4463 -0.3403 1.6950 -14.4103 4.0964 7.7111 -12.4561 0.8440 7.1017 37.6887 0.4998 2.5537 15.4588 0.0000 0.0000 0.0000 -70.0845 11.8544 -0.7095 152.5406 -38.6138 -110.2155 -0.0000 0.0000 -66.7333 27.6270 32.9406 15.8865 -7.1250 0.0000 -0.0000 -6.1721 66.0603 -3.1419 0.0000 0.0000 0.0000 63.1338 -23.3841 23.6218 -136.7279 49.8933 -99.0914 0.0000 -0.0000 -14.2432 -18.2289 -14.3380 4.6627 7.1250 -0.0000 -0.0000 8.5958 -44.8677 0.0283
-24.9520 15.8031 8.2253 -175.1220 -10.2472 -174.4620 0.0000 0.0000 0.0000 -6.0921 -34.8956 -14.4134 1.0588 6.5424 18.3667 0.1501 2.0930 -8.4011 13.7507 -19.0367 -71.4416 0.0000 0.0000 0.0000 41.3141 22.0578 12.2877 -0.0536 1.4945 -4.1104 -4.2177 -17.8512 -47.5264 -1.2282 -7.0287 19.8005 3.6164 3.2758 7.1228 2.2880 4.5882 -9.5183 -0.2899 1.6530 -14.3960 3.7039 7.5308 -12.4178 0.9369 6.8276 37.9647 0.5536 2.3608 15.5523 -0.0000 -0.0000 0.0000 -68.9496 11.8960 -2.3146 153.5930 -37.6078 -110.8651 -0.0000 0.0000 -66.7062 27.5087 32.7010 15.7136 -7.1250 0.0000 -0.0000 -6.1555 65.7807 -3.0938 -0.0000 -0.0000 0.0000 62.3899 -23.1471 22.5427 -138.8947 48.7113 -100.7343 0.0000 -0.0000 -14.2155 -18.1824 -13.7040 4.4492 7.1250 -0.0000 -0.0000 8.4931 -44.2083 0.1672
-24.9626 15.8128 8.2393 -175.0710 -10.3812 -174.2890 0.0000 0.0000 0.0000 -5.8581 -34.9774 -14.4614 1.0065 6.3838 17.9022 0.1485 2.4941 -8.6432 13.8246 -19.0600 -71.6680 0.0000 0.0000 0.0000 41.3960 22.5281 12.4489 -0.0598 1.5777 -4.3401 -4.3067 -18.1715 -48.0676 -1.1573 -6.8299 19.2123 3.6595 3.2340 6.9622 2.3094 4.5177 -9.5850 -0.2677 1.6110 -14.3740 3.3593 7.3740 -12.3639 1.0176 6.5741 38.2541 0.5975 2.1797 15.6557 -0.0000 0.0000 0.0000 -67.8670 11.9228 -3.9127 154.4143 -36.7967 -111.3617 -0.0000 0.0000 -66.5018 27.4171 32.4395 15.5493 -7.1250 0.0000 -0.0000 -6.0923 65.4864 -3.0205 -0.0000 0.0000 0.0000 61.7216 -22.9097 21.4598 -140.8409 47.5638 -102.1839 0.0000 -0.0000 -14.3954 -18.2932 -12.9719 4.2440 7.1250 -0.0000 -0.0000 8.2340 -43.4645 0.3143
-24.9716 15.8224 8.2537 -175.0350 -10.5052 -174.1160 0.0000 0.0000 0.0000 -5.6387 -35.1295 -14.4403 0.9515 6.2118 17.4003 0.1478 2.9072 -8.9368 13.8946 -19.0818 -71.8824 0.0000 0.0000 0.0000 41.3742 22.7865 12.4202 -0.0642 1.6352 -4.4985 -4.3509 -18.3608 -48.3538 -1.0536 -6.5269 18.3210 3.6922 3.1974 6.8161 2.3132 4.4535 -9.6468 -0.2615 1.5726 -14.3544 3.0746 7.2433 -12.2878 1.0773 6.3432 38.5617 0.6255 2.0114 15.7706 0.0000 0.0000 0.0000 -66.8894 11.9369 -5.4464 154.9578 -36.2471 -111.6852 -0.0000 0.0000 -66.0982 27.2812 32.0730 15.3149 -7.1250 0.0000 -0.0000 -6.0183 65.0713 -2.9258 0.0000 0.0000 0.0000 61.1599 -22.6771 20.4013 -142.5488 46.4852 -103.4335 0.0000 -0.0000 -14.8521 -18.6269 -12.2080 4.0768 7.1250 -0.0000 -0.0000 7.7795 -42.7083 0.4428
-24.9781 15.8320 8.2682 -175.0180 -10.6197 -173.9390 0.0000 0.0000 0.0000 -5.4406 -35.3655 -14.3450 0.8927 6.0223 16.8492 0.1467 3.3324 -9.2520 13.9589 -19.1015 -72.0789 0.0000 0.0000 0.0000 41.2622 22.8732 12.2374 -0.0674 1.6746 -4.6071 -4.3605 -18.4120 -48.4224 -0.9455 -6.1930 17.3454 3.7009 3.1682 6.6902 2.2985 4.3968 -9.7089 -0.2653 1.5393 -14.3480 2.8500 7.1389 -12.1882 1.1206 6.1311 38.8969 0.6384 1.8539 15.9012 -0.0000 0.0000 0.0000 -66.0697 11.9552 -6.8538 155.1946 -36.0044 -111.8248 -0.0000 0.0000 -65.4630 27.0962 31.6571 15.0309 -7.1250 0.0000 -0.0000 -5.9800 64.5917 -2.8406 -0.0000 0.0000 0.0000 60.7502 -22.4717 19.3831 -143.9996 45.5134 -104.4772 0.0000 -0.0000 -15.6879 -19.2875 -11.3278 3.9322 7.1250 -0.0000 -0.0000 7.0275 -41.8581 0.5477
